<svg width="18" height="18" viewBox="0 0 18 18" fill="none" xmlns="http://www.w3.org/2000/svg">
<g clip-path="url(#clip0_164_4894)">
<path d="M16.6248 15.2287C16.7818 15.2288 16.9329 15.2887 17.0474 15.3962C17.1618 15.5037 17.231 15.6507 17.2409 15.8074C17.2508 15.9642 17.2006 16.1187 17.1006 16.2398C17.0006 16.3608 16.8582 16.4392 16.7024 16.4591L16.6248 16.464H0.977508C0.820488 16.4639 0.669394 16.404 0.554949 16.2965C0.440504 16.189 0.3713 16.042 0.36141 15.8853C0.351521 15.7285 0.401687 15.5739 0.501709 15.4529C0.60173 15.3319 0.744097 15.2535 0.899861 15.2336L0.977508 15.2287H16.6248ZM4.18433 1.42658L4.10527 1.43576C4.00834 1.45417 3.91723 1.49554 3.83956 1.55639C3.7619 1.61725 3.69995 1.69582 3.65889 1.78554C3.61783 1.87526 3.59887 1.97351 3.60358 2.07206C3.60829 2.17061 3.63655 2.2666 3.68598 2.352L6.73186 7.62635L3.67892 8.71905L3.63939 8.7007C3.54057 8.65482 3.43892 8.60964 3.33516 8.56588L3.01539 8.4367C1.93186 8.01953 0.69445 7.74423 0.220097 8.01741C0.078318 8.09934 -0.0251208 8.23423 -0.0674785 8.39241C-0.109836 8.55059 -0.0876457 8.71911 -0.00578553 8.86094L1.89374 12.1511C2.02927 12.3854 2.30033 12.504 2.56433 12.4447L4.73068 11.9506L5.54245 11.7621L7.15398 11.3838L8.72951 11.0075L9.60268 10.7958L11.2594 10.3842L12.5314 10.0595L13.6396 9.76376L14.2241 9.60141L14.7472 9.45035L15.2088 9.30988L15.6069 9.18141L15.837 9.10164L16.0382 9.02682L16.1279 8.99152L16.286 8.92376C16.3333 8.90258 16.3763 8.88141 16.4144 8.86164L16.526 8.79811L16.6079 8.74729C17.5269 8.15435 18.05 7.30164 17.4387 6.24353C17.2674 5.92972 17.0067 5.67394 16.6897 5.5087L16.5733 5.45011C16.058 5.21435 15.4177 5.18611 14.6603 5.40282L11.5897 6.37411L6.33586 1.48941C6.27471 1.43248 6.20264 1.38855 6.12401 1.36028C6.04539 1.33201 5.96185 1.31999 5.87845 1.32494L4.18433 1.42658Z" fill="#8F959E"/>
</g>
<defs>
<clipPath id="clip0_164_4894">
<rect width="18" height="18" fill="white"/>
</clipPath>
</defs>
</svg>
