<svg width="18" height="18" viewBox="0 0 18 18" fill="none" xmlns="http://www.w3.org/2000/svg">
<path d="M2.08118 4.04165C2.08118 2.706 2.08118 2.03818 2.49611 1.62325C2.91104 1.20831 3.57886 1.20831 4.91451 1.20831H10.9708C12.3064 1.20831 12.9742 1.20831 13.3892 1.62325C13.8041 2.03818 13.8041 2.706 13.8041 4.04165V8.03362C13.7579 8.07214 13.713 8.11309 13.6696 8.15646L10.0294 11.7967C9.79329 12.0328 9.67524 12.1509 9.52853 12.1509C9.38183 12.1509 9.26378 12.0328 9.02767 11.7967L8.28297 11.052C7.50843 10.2775 6.25265 10.2775 5.47812 11.052C4.70358 11.8266 4.70358 13.0823 5.47813 13.8569L7.16862 15.5474C7.26166 15.6407 7.37107 15.7503 7.48898 15.8615L8.41917 16.7916H4.91451C3.57886 16.7916 2.91104 16.7916 2.49611 16.3767C2.08118 15.9618 2.08118 15.294 2.08118 13.9583V4.04165ZM5.86688 3.22585C5.86688 3.53882 6.12059 3.79252 6.43355 3.79252H9.45091C9.76387 3.79252 10.0176 3.53882 10.0176 3.22585C10.0176 2.91289 9.76387 2.65919 9.45091 2.65919H6.43355C6.12059 2.65919 5.86688 2.91289 5.86688 3.22585Z" fill="#8F959E"/>
<path d="M15.67 8.96081C16.002 9.29275 16.002 9.83094 15.67 10.1629L11.0978 14.7352C10.8885 14.9446 10.6759 15.1573 10.4749 15.3107C10.2446 15.4864 9.93278 15.662 9.5255 15.662C9.11823 15.662 8.80644 15.4864 8.5761 15.3107C8.37514 15.1573 8.16253 14.9446 7.95321 14.7352L6.27647 13.0585C5.94452 12.7265 5.94452 12.1883 6.27646 11.8564C6.60841 11.5244 7.1466 11.5244 7.47855 11.8564L8.89888 13.2767V13.2742L9.03223 13.4075C9.26835 13.6436 9.3864 13.7617 9.5331 13.7617C9.61423 13.7617 9.6866 13.7256 9.77501 13.6534C9.82098 13.6078 9.87092 13.5579 9.92619 13.5026L14.4679 8.96081C14.7999 8.62887 15.3381 8.62886 15.67 8.96081Z" fill="#8F959E"/>
</svg>
