<svg width="18" height="18" viewBox="0 0 18 18" fill="none" xmlns="http://www.w3.org/2000/svg">
<path d="M2.22055 1.76047L7.72055 2.94708C8.06587 3.02158 8.31238 3.32695 8.31238 3.68021V16.0046C8.31238 16.4771 7.88062 16.832 7.41702 16.7404L1.91701 15.6537C1.56564 15.5843 1.31238 15.2761 1.31238 14.9179V2.4936C1.31238 2.01568 1.75339 1.65968 2.22055 1.76047ZM4.20652 4.95378C3.80655 4.84609 3.39501 5.08304 3.28733 5.48301C3.17964 5.88298 3.41659 6.29452 3.81657 6.4022L5.38843 6.8254C5.7884 6.93308 6.19994 6.69614 6.30762 6.29616C6.41531 5.89619 6.17836 5.48466 5.77839 5.37697L4.20652 4.95378ZM5.77839 8.31975L4.6316 8.011C4.23163 7.90332 3.82009 8.14026 3.71241 8.54023C3.60472 8.9402 3.84167 9.35172 4.24164 9.45945L5.38843 9.76815C5.7884 9.87588 6.19994 9.63891 6.30762 9.23895C6.41531 8.83897 6.17836 8.42743 5.77839 8.31975ZM9.56236 3.68021C9.56236 3.32695 9.80887 3.02158 10.1542 2.94708L15.6542 1.76047C16.1214 1.65968 16.5624 2.01568 16.5624 2.4936V14.9179C16.5624 15.2761 16.3091 15.5843 15.9578 15.6537L10.4578 16.7404C9.99417 16.832 9.56236 16.4771 9.56236 16.0046V3.68021ZM14.5876 5.48301C14.4799 5.08304 14.0684 4.84609 13.6683 4.95378L12.0965 5.37697C11.6965 5.48466 11.4596 5.89619 11.5673 6.29616C11.6749 6.69614 12.0865 6.93308 12.4865 6.8254L14.0583 6.4022C14.4583 6.29452 14.6952 5.88298 14.5876 5.48301ZM13.6332 9.45945C14.0332 9.35172 14.2702 8.9402 14.1625 8.54023C14.0548 8.14026 13.6433 7.90332 13.2433 8.011L12.0965 8.31975C11.6965 8.42743 11.4596 8.83897 11.5673 9.23895C11.6749 9.63891 12.0865 9.87588 12.4865 9.76815L13.6332 9.45945Z" fill="#8F959E"/>
</svg>
