<svg width="18" height="18" viewBox="0 0 18 18" fill="none" xmlns="http://www.w3.org/2000/svg">
<path d="M13.7278 10.156H5.84502L3.58172 2.22701H0L0.647187 4.49586H1.86945L4.1346 12.4267H15.44L16.0872 10.156H13.7278Z" fill="#8F959E"/>
<path d="M7.49692 14.9271C7.49692 13.9748 6.72584 13.2019 5.77355 13.2019C4.82127 13.2019 4.04834 13.9729 4.04834 14.9271C4.04834 15.8812 4.81942 16.6523 5.77355 16.6523C6.72769 16.6523 7.49692 15.8812 7.49692 14.9271Z" fill="#8F959E"/>
<path d="M15.0996 13.6161C14.7982 13.3572 14.408 13.2019 13.979 13.2019C13.0267 13.2019 12.2538 13.9729 12.2538 14.9271C12.2538 15.8812 13.0249 16.6523 13.979 16.6523C14.7538 16.6523 15.4102 16.1401 15.6266 15.4356C15.6765 15.2747 15.7024 15.1046 15.7024 14.9271C15.7024 14.4019 15.4675 13.9341 15.0977 13.6179L15.0996 13.6161Z" fill="#8F959E"/>
<path d="M10.7206 5.05176L12.9894 5.91529V0L10.7206 0.865381V5.05176Z" fill="#8F959E"/>
<path d="M17.9999 3.45543H15.6405L13.7285 10.1547H16.088L17.9999 3.45543Z" fill="#8F959E"/>
<path d="M9.11004 2.81631L6.84119 1.95277V8.21384L9.11004 7.35031V2.81631Z" fill="#8F959E"/>
</svg>
