<svg width="16" height="16" viewBox="0 0 16 16" fill="none" xmlns="http://www.w3.org/2000/svg">
<path d="M11 6C11.9946 6 12.9484 6.39509 13.6517 7.09835C14.3549 7.80161 14.75 8.75544 14.75 9.75V14.125H12.25V9.75C12.25 9.41848 12.1183 9.10054 11.8839 8.86612C11.6495 8.6317 11.3315 8.5 11 8.5C10.6685 8.5 10.3505 8.6317 10.1161 8.86612C9.8817 9.10054 9.75 9.41848 9.75 9.75V14.125H7.25V9.75C7.25 8.75544 7.64509 7.80161 8.34835 7.09835C9.05161 6.39509 10.0054 6 11 6Z" stroke="#1F2329" stroke-width="1.25" stroke-linecap="round" stroke-linejoin="round"/>
<path d="M4.75 6.625H2.25V14.125H4.75V6.625Z" stroke="#1F2329" stroke-width="1.25" stroke-linecap="round" stroke-linejoin="round"/>
<path d="M3.5 4.75C4.19036 4.75 4.75 4.19036 4.75 3.5C4.75 2.80964 4.19036 2.25 3.5 2.25C2.80964 2.25 2.25 2.80964 2.25 3.5C2.25 4.19036 2.80964 4.75 3.5 4.75Z" stroke="#1F2329" stroke-width="1.25" stroke-linecap="round" stroke-linejoin="round"/>
</svg>
