<svg width="20" height="20" viewBox="0 0 20 20" fill="none" xmlns="http://www.w3.org/2000/svg">
<g clip-path="url(#clip0_492_8545)">
<path d="M12.5 11.6667C12.6667 10.8333 13.0833 10.25 13.75 9.58334C14.5833 8.83334 15 7.75 15 6.66667C15 5.34059 14.4732 4.06882 13.5355 3.13114C12.5979 2.19346 11.3261 1.66667 10 1.66667C8.67392 1.66667 7.40215 2.19346 6.46447 3.13114C5.52678 4.06882 5 5.34059 5 6.66667C5 7.5 5.16667 8.5 6.25 9.58334C6.83333 10.1667 7.33333 10.8333 7.5 11.6667" stroke="#0080FF" stroke-width="1.66667" stroke-linecap="round" stroke-linejoin="round"/>
<path d="M7.5 15H12.5" stroke="#0080FF" stroke-width="1.66667" stroke-linecap="round" stroke-linejoin="round"/>
<path d="M8.33334 18.3333H11.6667" stroke="#0080FF" stroke-width="1.66667" stroke-linecap="round" stroke-linejoin="round"/>
</g>
<defs>
<clipPath id="clip0_492_8545">
<rect width="20" height="20" fill="white"/>
</clipPath>
</defs>
</svg>
