<svg width="20" height="20" viewBox="0 0 20 20" fill="none" xmlns="http://www.w3.org/2000/svg">
<g clip-path="url(#clip0_492_8536)">
<path d="M9.99999 18.3333C14.6024 18.3333 18.3333 14.6024 18.3333 9.99999C18.3333 5.39762 14.6024 1.66666 9.99999 1.66666C5.39762 1.66666 1.66666 5.39762 1.66666 9.99999C1.66666 14.6024 5.39762 18.3333 9.99999 18.3333Z" stroke="#FF9500" stroke-width="1.66667" stroke-linecap="round" stroke-linejoin="round"/>
<path d="M10 15C12.7614 15 15 12.7614 15 10C15 7.23858 12.7614 5 10 5C7.23858 5 5 7.23858 5 10C5 12.7614 7.23858 15 10 15Z" stroke="#FF9500" stroke-width="1.66667" stroke-linecap="round" stroke-linejoin="round"/>
<path d="M10 11.6667C10.9205 11.6667 11.6667 10.9205 11.6667 10C11.6667 9.07954 10.9205 8.33334 10 8.33334C9.07954 8.33334 8.33334 9.07954 8.33334 10C8.33334 10.9205 9.07954 11.6667 10 11.6667Z" stroke="#FF9500" stroke-width="1.66667" stroke-linecap="round" stroke-linejoin="round"/>
</g>
<defs>
<clipPath id="clip0_492_8536">
<rect width="20" height="20" fill="white"/>
</clipPath>
</defs>
</svg>
