<svg width="17" height="17" viewBox="0 0 17 17" fill="none" xmlns="http://www.w3.org/2000/svg">
<g clip-path="url(#clip0_639_8799)">
<path d="M4.72412 6.74805V14.8462" stroke="#AD46FF" stroke-width="1.68711" stroke-linecap="round" stroke-linejoin="round"/>
<path d="M10.1226 3.96801L9.44775 6.74837H13.3821C13.5916 6.74837 13.7983 6.79716 13.9857 6.89086C14.1731 6.98457 14.3361 7.12062 14.4619 7.28825C14.5876 7.45587 14.6725 7.65047 14.71 7.85662C14.7475 8.06278 14.7365 8.27482 14.6778 8.47598L13.1054 13.8747C13.0236 14.1551 12.8532 14.4014 12.6195 14.5766C12.3859 14.7518 12.1017 14.8465 11.8097 14.8465H2.6993C2.34134 14.8465 1.99804 14.7043 1.74492 14.4512C1.49181 14.1981 1.34961 13.8548 1.34961 13.4968V8.09806C1.34961 7.7401 1.49181 7.3968 1.74492 7.14369C1.99804 6.89057 2.34134 6.74837 2.6993 6.74837H4.56187C4.81297 6.74824 5.05906 6.67806 5.27246 6.54573C5.48585 6.4134 5.65811 6.22416 5.76985 5.99929L8.09806 1.34961C8.4163 1.35355 8.72954 1.42936 9.01437 1.57136C9.2992 1.71337 9.54826 1.9179 9.74293 2.16968C9.93761 2.42147 10.0729 2.71398 10.1386 3.02539C10.2044 3.33679 10.1989 3.65902 10.1226 3.96801Z" stroke="#AD46FF" stroke-width="1.68711" stroke-linecap="round" stroke-linejoin="round"/>
</g>
<defs>
<clipPath id="clip0_639_8799">
<rect width="16.1963" height="16.1963" fill="white"/>
</clipPath>
</defs>
</svg>
