<svg width="16" height="16" viewBox="0 0 16 16" fill="none" xmlns="http://www.w3.org/2000/svg">
<path d="M10.6694 14.0031V12.6694C10.6694 11.9619 10.3884 11.2835 9.88813 10.7832C9.3879 10.283 8.70943 10.002 8.00199 10.002H4.0009C3.29346 10.002 2.61499 10.283 2.11476 10.7832C1.61452 11.2835 1.3335 11.9619 1.3335 12.6694V14.0031" stroke="#2B7FFF" stroke-width="1.66712" stroke-linecap="round" stroke-linejoin="round"/>
<path d="M6.00187 7.3348C7.47504 7.3348 8.66927 6.14056 8.66927 4.6674C8.66927 3.19424 7.47504 2 6.00187 2C4.52871 2 3.33447 3.19424 3.33447 4.6674C3.33447 6.14056 4.52871 7.3348 6.00187 7.3348Z" stroke="#2B7FFF" stroke-width="1.66712" stroke-linecap="round" stroke-linejoin="round"/>
<path d="M14.67 14.0043V12.6706C14.6695 12.0795 14.4728 11.5054 14.1107 11.0383C13.7486 10.5712 13.2417 10.2376 12.6694 10.0898" stroke="#2B7FFF" stroke-width="1.66712" stroke-linecap="round" stroke-linejoin="round"/>
<path d="M10.6694 2.08691C11.2432 2.23382 11.7518 2.56751 12.1149 3.03538C12.4781 3.50325 12.6752 4.07868 12.6752 4.67096C12.6752 5.26323 12.4781 5.83866 12.1149 6.30653C11.7518 6.7744 11.2432 7.10809 10.6694 7.255" stroke="#2B7FFF" stroke-width="1.66712" stroke-linecap="round" stroke-linejoin="round"/>
</svg>
